<svg width="40" height="40" viewBox="0 0 40 40" fill="none" xmlns="http://www.w3.org/2000/svg">
<circle cx="20" cy="20" r="20" fill="#DB7093"/>
<path d="M27.6301 15.1295V17.7704H11.282V15.1295H27.6301ZM16.0468 10.2703H20.8937V29.6016C20.8937 30.4819 21.0922 31.1421 21.4893 31.5823C21.9 32.0136 22.4203 32.3041 23.0502 32.4538C23.6937 32.5946 24.3714 32.665 25.0834 32.665C25.6174 32.665 26.0555 32.6474 26.3978 32.6122C26.7401 32.5682 27.0139 32.533 27.2193 32.5066L28.2051 35.3059C27.8765 35.3852 27.4178 35.4644 26.8291 35.5436C26.2403 35.6317 25.4941 35.6757 24.5905 35.6757C23.2213 35.6757 21.8795 35.4864 20.5651 35.1079C19.2644 34.7293 18.1827 34.1528 17.3201 33.3781C16.4712 32.6034 16.0468 31.6263 16.0468 30.4467V10.2703Z" fill="#FFFBFB"/>
</svg>
